<?xml version="1.0" encoding="UTF-8"?>
<!DOCTYPE svg PUBLIC "-//W3C//DTD SVG 1.1//EN" "http://www.w3.org/Graphics/SVG/1.1/DTD/svg11.dtd">
<!-- Creator: CorelDRAW -->
<svg xmlns="http://www.w3.org/2000/svg" xml:space="preserve" width="40mm" height="30mm" style="shape-rendering:geometricPrecision; text-rendering:geometricPrecision; image-rendering:optimizeQuality; fill-rule:evenodd; clip-rule:evenodd"
viewBox="0 0 40 30">
 <defs>
  <style type="text/css">
   <![CDATA[
    .fil5 {fill:#DA251D}
    .fil4 {fill:#F8C300}
    .fil3 {fill:#0F5076}
    .fil1 {fill:#0A0B0C;fill-rule:nonzero}
    .fil0 {fill:#DA251D;fill-rule:nonzero}
    .fil2 {fill:#0F5076;fill-rule:nonzero}
   ]]>
  </style>
 </defs>
 <g id="Layer_x0020_1">
  <metadata id="CorelCorpID_0Corel-Layer"/>
  <g id="_148398832">
   <path id="_147964176" class="fil0" d="M2.6615 20.8334l1.6106 0 0 -2.2097 2.0672 0 0 2.2097 1.6106 0 0 -5.8127 -1.6106 0 0 2.1751 -2.0672 0 0 -2.1751 -1.6106 0 0 5.8127zm5.8529 0l1.6936 0 0.415 -1.0391 2.2416 0 0.4233 1.0391 1.7268 0 -2.4739 -5.8542 -1.5525 0 -2.4739 5.8542zm2.5818 -2.2927l0.6559 -1.652 0.6475 1.652 -1.3034 0zm4.4831 2.2927l1.6105 0 0 -1.7613 0.6891 0 0.0166 0 1.1706 1.7613 1.8596 0 -1.3864 -2.027c0.7222,-0.3072 1.1954,-0.8966 1.1954,-1.7849l0 -0.0166c0,-0.5728 -0.1743,-1.0211 -0.5147,-1.3532 -0.3902,-0.3985 -1.0045,-0.631 -1.8928,-0.631l-2.7479 0 0 5.8127zm1.6105 -3.0232l0 -1.3948 1.0543 0c0.5397,0 0.8718,0.2325 0.8718,0.6891l0 0.0166c0,0.4234 -0.3155,0.6891 -0.8634,0.6891l-1.0627 0zm4.3917 3.0232l1.6189 0 0 -5.8127 -1.6189 0 0 5.8127zm5.6038 0.1163c1.7932,0 3.1381,-1.3546 3.1381,-3.0233l0 -0.0166c0,-1.6687 -1.3283,-3.0053 -3.1215,-3.0053 -1.7932,0 -3.1381,1.3532 -3.1381,3.0219l0 0.0166c0,1.6687 1.3283,3.0067 3.1215,3.0067zm0.0166 -1.4542c-0.88,0 -1.486,-0.7306 -1.486,-1.5691l0 -0.0166c0,-0.8385 0.5894,-1.5525 1.4694,-1.5525 0.8883,0 1.4943,0.7306 1.4943,1.5691l0 0.0166c0,0.8385 -0.5894,1.5525 -1.4777,1.5525zm3.96 1.3379l1.5773 0 0 -3.3221 1.4778 2.2581 0.0332 0 1.486 -2.2747 0 3.3387 1.6023 0 0 -5.8127 -1.7019 0 -1.3864 2.2498 -1.3864 -2.2498 -1.7019 0 0 5.8127z"/>
   <path id="_147964296" class="fil1" d="M2.5188 24.0777l0.5619 0 0.1377 -0.3447 0.7436 0 0.1404 0.3447 0.5729 0 -0.8207 -1.9421 -0.5151 0 -0.8207 1.9421zm0.8565 -0.7606l0.2176 -0.5481 0.2149 0.5481 -0.4325 0zm1.4873 0.7606l0.7326 0c0.694,0 1.0989,-0.4136 1.0989,-0.9699l0 -0.0055c0,-0.5564 -0.3994,-0.9529 -1.0879,-0.9529l-0.7436 0 0 1.9283zm0.5343 -0.4742l0 -0.9804 0.2176 0c0.3194,0 0.5315,0.179 0.5315,0.4874l0 0.0055c0,0.3112 -0.2121,0.4875 -0.5315,0.4875l-0.2176 0zm2.0766 0.4879l0.4957 0 0.7822 -1.942 -0.5866 0 -0.4379 1.22 -0.4379 -1.22 -0.5977 0 0.7822 1.942zm1.4652 -0.0137l1.5643 0 0 -0.4549 -1.0356 0 0 -0.3057 0.9255 0 0 -0.4214 -0.9255 0 0 -0.2919 1.0218 0 0 -0.4544 -1.5505 0 0 1.9283zm1.837 0l0.5343 0 0 -0.5843 0.2285 0 0.0056 0 0.3883 0.5843 0.6169 0 -0.4599 -0.6725c0.2396,-0.1019 0.3966,-0.2974 0.3966,-0.5921l0 -0.0055c0,-0.1901 -0.0579,-0.3388 -0.1708,-0.4489 -0.1294,-0.1322 -0.3332,-0.2093 -0.6279,-0.2093l-0.9116 0 0 1.9283zm0.5343 -1.003l0 -0.4627 0.3497 0c0.179,0 0.2892,0.0771 0.2892,0.2286l0 0.0055c0,0.1405 -0.1046,0.2286 -0.2864,0.2286l-0.3525 0zm1.9168 1.003l0.5343 0 0 -1.4602 0.5784 0 0 -0.4681 -1.691 0 0 0.4681 0.5783 0 0 1.4602zm1.3578 0l0.537 0 0 -1.9283 -0.537 0 0 1.9283zm1.647 0.033c0.4682,0 0.7794,-0.2345 0.7794,-0.6284l0 -0.0055c0,-0.3608 -0.2754,-0.504 -0.7188,-0.6004 -0.2672,-0.0606 -0.3333,-0.0991 -0.3333,-0.1873l0 -0.0055c0,-0.0688 0.0633,-0.1239 0.1928,-0.1239 0.1708,0 0.3635,0.0661 0.5398,0.19l0.2672 -0.3773c-0.2094,-0.168 -0.4655,-0.2561 -0.7932,-0.2561 -0.4627,0 -0.7464,0.2589 -0.7464,0.6169l0 0.0055c0,0.3966 0.3167,0.5123 0.7271,0.6059 0.2616,0.0606 0.325,0.1047 0.325,0.1846l0 0.0054c0,0.0827 -0.0772,0.1322 -0.2203,0.1322 -0.2231,0 -0.4352,-0.0798 -0.6252,-0.2313l-0.2975 0.3553c0.2369,0.2121 0.5618,0.3199 0.9034,0.3199zm1.0493 -0.033l0.5371 0 0 -1.9283 -0.5371 0 0 1.9283zm0.8896 0l0.5288 0 0 -1.0581 0.8235 1.0581 0.4681 0 0 -1.9283 -0.5287 0 0 1.019 -0.7932 -1.019 -0.4985 0 0 1.9283zm3.1452 0.0385c0.3498,0 0.6334,-0.1299 0.8372,-0.2979l0 -0.8675 -0.8868 0 0 0.3911 0.38 0 0 0.2341c-0.0798,0.0523 -0.179,0.0798 -0.3084,0.0798 -0.3057,0 -0.5233,-0.223 -0.5233,-0.5343l0 -0.0055c0,-0.2947 0.2148,-0.5288 0.493,-0.5288 0.19,0 0.3277,0.0662 0.4655,0.1818l0.3139 -0.3773c-0.2038,-0.1763 -0.4434,-0.2809 -0.7822,-0.2809 -0.5976,0 -1.0382,0.4406 -1.0382,1.0025l0 0.0055c0,0.5839 0.4489,0.9974 1.0493,0.9974zm2.8257 0c0.4269,0 0.672,-0.185 0.8538,-0.4356l-0.4022 -0.2864c-0.1156,0.1404 -0.234,0.2341 -0.4351,0.2341 -0.2699,0 -0.4599,-0.2259 -0.4599,-0.515l0 -0.0055c0,-0.2809 0.19,-0.5095 0.4599,-0.5095 0.1845,0 0.3112,0.0881 0.4214,0.2258l0.4021 -0.3112c-0.1708,-0.2369 -0.4241,-0.4021 -0.818,-0.4021 -0.5838,0 -1.0162,0.4406 -1.0162,1.0025l0 0.0055c0,0.5756 0.4434,0.9974 0.9942,0.9974zm1.9967 0c0.5949,0 1.0411,-0.4494 1.0411,-1.0029l0 -0.0055c0,-0.5536 -0.4407,-0.997 -1.0356,-0.997 -0.5949,0 -1.041,0.4489 -1.041,1.0025l0 0.0055c0,0.5536 0.4406,0.9974 1.0355,0.9974zm0.0055 -0.4824c-0.2919,0 -0.4929,-0.2423 -0.4929,-0.5205l0 -0.0055c0,-0.2782 0.1955,-0.515 0.4874,-0.515 0.2947,0 0.4958,0.2423 0.4958,0.5205l0 0.0055c0,0.2782 -0.1956,0.515 -0.4903,0.515zm1.3138 0.4439l0.5232 0 0 -1.1021 0.4903 0.7491 0.011 0 0.493 -0.7546 0 1.1076 0.5315 0 0 -1.9283 -0.5646 0 -0.4599 0.7463 -0.46 -0.7463 -0.5645 0 0 1.9283zm2.3905 0l0.5343 0 0 -0.5513 0.2644 0c0.4792,0 0.829,-0.2396 0.829,-0.694l0 -0.0055c0,-0.4269 -0.314,-0.6775 -0.8015,-0.6775l-0.8262 0 0 1.9283zm0.5343 -0.9699l0 -0.5095 0.2507 0c0.1927,0 0.3084,0.0881 0.3084,0.2533l0 0.0056c0,0.1514 -0.1157,0.2506 -0.3057,0.2506l-0.2534 0zm0.9722 0.9699l0.5618 0 0.1378 -0.3447 0.7436 0 0.1404 0.3447 0.5729 0 -0.8207 -1.9421 -0.515 0 -0.8208 1.9421zm0.8565 -0.7606l0.2176 -0.5481 0.2149 0.5481 -0.4325 0zm1.4873 0.7606l0.5288 0 0 -1.0581 0.8234 1.0581 0.4683 0 0 -1.9283 -0.5288 0 0 1.019 -0.7932 -1.019 -0.4985 0 0 1.9283zm2.7183 0l0.5371 0 0 -0.7303 0.7325 -1.198 -0.5976 0 -0.3993 0.7022 -0.3966 -0.7022 -0.6091 0 0.733 1.2062 0 0.7221z"/>
   <g>
    <path id="_147964392" class="fil2" d="M3.108 27.1379l0.2471 -0.801 0.3247 0 0.2451 0.801 0.2769 -0.801 0.3368 0 -0.4862 1.3927 -0.2311 0 -0.3048 -0.9683 -0.3029 0.9683 -0.2311 0 -0.4862 -1.3927 0.3367 0 0.275 0.801zm3.4578 -0.1126c0,-0.1242 -0.0398,-0.2301 -0.1195,-0.3178 -0.0797,-0.0877 -0.1777,-0.1315 -0.2939,-0.1315 -0.1162,0 -0.2142,0.0438 -0.2939,0.1315 -0.0797,0.0877 -0.1195,0.1936 -0.1195,0.3178 0,0.1242 0.0398,0.2298 0.1195,0.3168 0.0797,0.087 0.1777,0.1305 0.2939,0.1305 0.1162,0 0.2142,-0.0435 0.2939,-0.1305 0.0797,-0.087 0.1195,-0.1926 0.1195,-0.3168zm0.1056 0.512c-0.1408,0.1375 -0.3141,0.2063 -0.52,0.2063 -0.2059,0 -0.3792,-0.0688 -0.52,-0.2063 -0.1408,-0.1374 -0.2112,-0.3084 -0.2112,-0.513 0,-0.2046 0.0704,-0.3756 0.2112,-0.5131 0.1408,-0.1375 0.3141,-0.2062 0.52,-0.2062 0.2059,0 0.3792,0.0687 0.52,0.2062 0.1408,0.1375 0.2112,0.3085 0.2112,0.5131 0,0.2046 -0.0704,0.3756 -0.2112,0.513zm2.3999 -0.7382c0,0.2232 -0.0884,0.3673 -0.265,0.4324l0.3526 0.4981 -0.3825 0 -0.3088 -0.4443 -0.2152 0 0 0.4443 -0.3108 0 0 -1.3927 0.5279 0c0.2165,0 0.371,0.0365 0.4633,0.1096 0.0923,0.073 0.1385,0.1906 0.1385,0.3526zm-0.5918 0.2172c0.1063,0 0.1787,-0.0173 0.2172,-0.0518 0.0385,-0.0345 0.0578,-0.0893 0.0578,-0.1643 0,-0.0751 -0.0199,-0.1266 -0.0598,-0.1545 -0.0398,-0.0279 -0.1096,-0.0418 -0.2092,-0.0418l-0.2331 0 0 0.4124 0.2271 0zm1.7065 0.7133l0 -1.3927 0.3108 0 0 1.1157 0.5938 0 0 0.277 -0.9046 0zm2.4198 -1.3927c0.2483,0 0.4389,0.0608 0.5718,0.1823 0.1328,0.1215 0.1992,0.2906 0.1992,0.5071 0,0.2165 -0.0647,0.3878 -0.1942,0.514 -0.1295,0.1262 -0.3271,0.1893 -0.5928,0.1893l-0.4762 0 0 -1.3927 0.4922 0zm0.0159 1.1178c0.1421,0 0.2514,-0.0359 0.3278,-0.1076 0.0763,-0.0718 0.1145,-0.176 0.1145,-0.3128 0,-0.1369 -0.0382,-0.2421 -0.1145,-0.3159 -0.0764,-0.0737 -0.1936,-0.1105 -0.3517,-0.1105l-0.1734 0 0 0.8468 0.1973 0zm2.2544 -0.3168l0.247 -0.801 0.3248 0 0.2451 0.801 0.2769 -0.801 0.3367 0 -0.4861 1.3927 -0.2311 0 -0.3049 -0.9683 -0.3028 0.9683 -0.2311 0 -0.4862 -1.3927 0.3367 0 0.275 0.801zm2.3918 -0.801l0.3109 0 0 1.3927 -0.3109 0 0 -1.3927zm1.9416 0c0.2484,0 0.439,0.0608 0.5718,0.1823 0.1329,0.1215 0.1993,0.2906 0.1993,0.5071 0,0.2165 -0.0648,0.3878 -0.1943,0.514 -0.1295,0.1262 -0.327,0.1893 -0.5927,0.1893l-0.4762 0 0 -1.3927 0.4921 0zm0.016 1.1178c0.1421,0 0.2513,-0.0359 0.3277,-0.1076 0.0764,-0.0718 0.1146,-0.176 0.1146,-0.3128 0,-0.1369 -0.0382,-0.2421 -0.1146,-0.3159 -0.0764,-0.0737 -0.1936,-0.1105 -0.3516,-0.1105l-0.1734 0 0 0.8468 0.1973 0zm2.8242 -1.1178l0 0.2769 -0.6934 0 0 0.2869 0.6236 0 0 0.265 -0.6236 0 0 0.289 0.7153 0 0 0.2749 -1.0261 0 0 -1.3927 1.0042 0zm2.5951 0.2411c-0.0518,0 -0.0927,0.0123 -0.1225,0.0368 -0.03,0.0246 -0.0449,0.0572 -0.0449,0.0977 0,0.0405 0.0183,0.0727 0.0548,0.0966 0.0365,0.0239 0.1209,0.0521 0.253,0.0847 0.1322,0.0325 0.2348,0.0814 0.3079,0.1464 0.073,0.0651 0.1096,0.1601 0.1096,0.285 0,0.1248 -0.0469,0.2261 -0.1405,0.3038 -0.0936,0.0777 -0.2168,0.1165 -0.3696,0.1165 -0.2205,0 -0.4191,-0.0816 -0.5958,-0.245l0.1854 -0.2271c0.1501,0.1315 0.2889,0.1972 0.4164,0.1972 0.0571,0 0.1019,-0.0123 0.1345,-0.0369 0.0325,-0.0245 0.0488,-0.0578 0.0488,-0.0996 0,-0.0418 -0.0173,-0.075 -0.0518,-0.0996 -0.0346,-0.0246 -0.103,-0.0495 -0.2052,-0.0747 -0.1621,-0.0386 -0.2806,-0.0887 -0.3557,-0.1505 -0.0751,-0.0617 -0.1126,-0.1587 -0.1126,-0.2909 0,-0.1321 0.0475,-0.2341 0.1425,-0.3058 0.095,-0.0717 0.2135,-0.1076 0.3556,-0.1076 0.093,0 0.186,0.016 0.279,0.0478 0.093,0.0319 0.174,0.0771 0.2431,0.1355l-0.1574 0.2272c-0.1209,-0.0917 -0.2458,-0.1375 -0.3746,-0.1375zm2.623 -0.2411l0 0.2769 -0.6934 0 0 0.2869 0.6237 0 0 0.265 -0.6237 0 0 0.289 0.7153 0 0 0.2749 -1.0261 0 0 -1.3927 1.0042 0zm2.2245 0.4622c0,0.2232 -0.0884,0.3673 -0.265,0.4324l0.3526 0.4981 -0.3825 0 -0.3088 -0.4443 -0.2152 0 0 0.4443 -0.3108 0 0 -1.3927 0.5279 0c0.2166,0 0.371,0.0365 0.4633,0.1096 0.0923,0.073 0.1385,0.1906 0.1385,0.3526zm-0.5918 0.2172c0.1063,0 0.1787,-0.0173 0.2172,-0.0518 0.0385,-0.0345 0.0578,-0.0893 0.0578,-0.1643 0,-0.0751 -0.0199,-0.1266 -0.0598,-0.1545 -0.0398,-0.0279 -0.1096,-0.0418 -0.2092,-0.0418l-0.2331 0 0 0.4124 0.2271 0zm2.2206 0.2072l0.3546 -0.8866 0.3367 0 -0.5598 1.3927 -0.2631 0 -0.5598 -1.3927 0.3367 0 0.3547 0.8866zm1.6526 -0.8866l0.3108 0 0 1.3927 -0.3108 0 0 -1.3927zm2.089 1.1178c0.1528,0 0.2776,-0.0605 0.3746,-0.1813l0.1993 0.2052c-0.1581,0.178 -0.3444,0.2669 -0.5589,0.2669 -0.2145,0 -0.3912,-0.0677 -0.53,-0.2032 -0.1388,-0.1355 -0.2082,-0.3065 -0.2082,-0.513 0,-0.2066 0.0707,-0.3789 0.2122,-0.5171 0.1414,-0.1381 0.3144,-0.2072 0.519,-0.2072 0.2285,0 0.4197,0.087 0.5738,0.261l-0.1933 0.2192c-0.0982,-0.1222 -0.2204,-0.1833 -0.3665,-0.1833 -0.1169,0 -0.2169,0.0382 -0.2999,0.1146 -0.083,0.0763 -0.1245,0.1793 -0.1245,0.3088 0,0.1295 0.0392,0.2334 0.1175,0.3118 0.0784,0.0784 0.1733,0.1176 0.2849,0.1176zm2.6191 -1.1178l0 0.2769 -0.6934 0 0 0.2869 0.6236 0 0 0.265 -0.6236 0 0 0.289 0.7153 0 0 0.2749 -1.0262 0 0 -1.3927 1.0043 0z"/>
    <path id="_147964488" class="fil3" d="M2 28.5418l36 0 0 0.2989 -36 0 0 -0.2989zm0 -3.332l36 0 0 0.2989 -36 0 0 -0.2989z"/>
   </g>
   <path id="_147964560" class="fil4" d="M19.95 4.221c-0.3205,-0.3424 -0.5292,-0.8484 -0.5436,-1.4201 -0.0169,-0.6734 0.2399,-1.2774 0.6436,-1.6416 0.3205,0.3425 0.5292,0.8485 0.5436,1.4202 0.0169,0.6733 -0.2399,1.2773 -0.6436,1.6415zm-1.3265 0.3823c-0.4488,-0.1364 -0.8826,-0.4702 -1.1809,-0.9581 -0.3513,-0.5747 -0.4309,-1.2262 -0.2634,-1.7435 0.4487,0.1364 0.8825,0.4702 1.1808,0.9581 0.3513,0.5747 0.431,1.2262 0.2635,1.7435zm-0.9578 0.9943c-0.4568,0.1063 -0.9993,0.0341 -1.5016,-0.2393 -0.5916,-0.3221 -0.9863,-0.8465 -1.0999,-1.3782 0.4568,-0.1063 0.9994,-0.0341 1.5017,0.2393 0.5916,0.322 0.9863,0.8465 1.0998,1.3782zm-0.3322 1.3399c-0.3424,0.3205 -0.8485,0.5292 -1.4201,0.5436 -0.6734,0.0169 -1.2774,-0.2399 -1.6416,-0.6436 0.3424,-0.3204 0.8485,-0.5292 1.4201,-0.5436 0.6734,-0.0169 1.2774,0.2399 1.6416,0.6436zm0.3823 1.3266c-0.1364,0.4487 -0.4702,0.8825 -0.9581,1.1808 -0.5747,0.3513 -1.2262,0.4309 -1.7435,0.2634 0.1364,-0.4487 0.4702,-0.8825 0.9581,-1.1808 0.5747,-0.3513 1.2262,-0.4309 1.7435,-0.2634zm0.9943 0.9577c0.1063,0.4568 0.034,0.9993 -0.2394,1.5016 -0.322,0.5916 -0.8464,0.9863 -1.3781,1.0999 -0.1063,-0.4568 -0.0341,-0.9994 0.2393,-1.5017 0.3221,-0.5916 0.8465,-0.9863 1.3782,-1.0998zm1.3399 0.3322c0.3205,0.3424 0.5292,0.8485 0.5436,1.4201 0.0169,0.6734 -0.2399,1.2774 -0.6436,1.6416 -0.3205,-0.3424 -0.5292,-0.8485 -0.5436,-1.4201 -0.0169,-0.6734 0.2399,-1.2774 0.6436,-1.6416zm1.3265 -0.3823c0.4488,0.1364 0.8826,0.4702 1.1809,0.9581 0.3513,0.5747 0.4309,1.2262 0.2634,1.7435 -0.4487,-0.1364 -0.8825,-0.4702 -1.1808,-0.9581 -0.3513,-0.5747 -0.4309,-1.2262 -0.2635,-1.7435zm0.9578 -0.9943c0.4568,-0.1063 0.9993,-0.034 1.5016,0.2394 0.5916,0.322 0.9863,0.8464 1.0999,1.3781 -0.4568,0.1063 -0.9994,0.0341 -1.5017,-0.2393 -0.5916,-0.322 -0.9863,-0.8465 -1.0998,-1.3782zm0.3322 -1.3399c0.3424,-0.3204 0.8485,-0.5292 1.4201,-0.5436 0.6734,-0.0169 1.2774,0.2399 1.6416,0.6436 -0.3424,0.3205 -0.8485,0.5292 -1.4201,0.5436 -0.6734,0.0169 -1.2774,-0.2399 -1.6416,-0.6436zm-0.3823 -1.3266c0.1364,-0.4487 0.4702,-0.8825 0.9581,-1.1808 0.5747,-0.3513 1.2262,-0.4309 1.7435,-0.2634 -0.1364,0.4487 -0.4702,0.8825 -0.9581,1.1808 -0.5747,0.3513 -1.2262,0.4309 -1.7435,0.2634zm-0.9943 -0.9577c-0.1063,-0.4568 -0.034,-0.9993 0.2394,-1.5016 0.322,-0.5916 0.8464,-0.9863 1.3781,-1.0999 0.1063,0.4568 0.0341,0.9994 -0.2393,1.5017 -0.3221,0.5916 -0.8465,0.9863 -1.3782,1.0998z"/>
   <path id="_147964656" class="fil5" d="M20.1477 5.1769c0.0666,0.058 0.1047,0.107 0.1616,0.1685 0.0393,0.0423 0.1391,0.1536 0.1707,0.1748 0.0363,-0.0207 0.3131,-0.3236 0.3324,-0.358 -0.0274,-0.0411 -0.2992,-0.3304 -0.3324,-0.3533 -0.0561,0.0515 -0.3152,0.3183 -0.3323,0.368zm1.4012 0.5244l-0.2901 -0.3667c-0.0015,-0.0018 -0.0044,-0.0051 -0.0068,-0.0074 -0.0381,0.0155 -0.3918,0.3549 -0.8089,0.3432 -0.2407,-0.0067 -0.411,-0.1627 -0.538,-0.3253 -0.0698,-0.0894 -0.0819,-0.1565 -0.1181,-0.1662 -0.0803,0.3077 0.2214,0.7824 0.6306,0.8776 0.2046,0.0475 0.4788,0.0228 0.6608,-0.0516 0.1379,-0.0563 0.3958,-0.214 0.4705,-0.3036zm-3.016 0.3186c0.0561,0.1299 0.1988,0.2941 0.2668,0.4287 0.059,-0.011 0.1533,-0.0678 0.2133,-0.0952 0.2243,-0.1027 0.5304,-0.2428 0.7147,-0.0465 0.0511,0.0545 0.1035,0.1262 0.0458,0.2196 -0.0389,0.0628 -0.0915,0.1153 -0.1674,0.1518 -0.1718,0.0824 -0.3769,0.0442 -0.5767,0.0329 0.0221,0.1127 0.1927,0.5006 0.2499,0.5713 0.1756,0.0092 0.3243,-0.039 0.4587,0.0679 0.0909,0.0723 0.1662,0.2268 0.1383,0.3941 -0.0502,0.3006 -0.3452,0.4287 -0.6832,0.3976 -0.5893,-0.0542 -0.7756,-0.4414 -0.9296,-0.9469 -0.0222,-0.0731 -0.0432,-0.1575 -0.09,-0.1839 -0.0491,0.124 -0.002,0.459 0.0342,0.5951 0.1244,0.4673 0.4495,0.9722 0.9444,1.1012 0.1665,0.0434 0.4344,0.0369 0.5794,-0.0306 0.3097,-0.1443 0.495,-0.4965 0.4977,-0.8683 0.0025,-0.3399 -0.108,-0.4179 -0.1343,-0.5444 0.4858,-0.0441 0.4009,0.1316 0.8,-0.4865 0.0732,-0.1133 0.1837,-0.287 0.3691,-0.2799 0.076,0.0029 0.183,0.0556 0.2272,0.0913 0.1822,0.1474 0.3062,0.7902 -0.2244,1.0996 -0.2836,0.1653 -0.6062,0.1317 -0.7526,-0.1839 -0.0272,-0.0586 -0.0171,-0.0833 -0.0342,-0.1356 -0.0021,0.0018 -0.0052,0.0021 -0.006,0.0058 -0.0007,0.0038 -0.0048,0.0048 -0.0058,0.0062 -0.1091,0.1483 -0.0151,0.5897 0.1083,0.7719 0.0673,0.0995 0.1471,0.1833 0.2792,0.2239 0.1391,0.0428 0.2923,0.0379 0.4316,-0.0071 0.6887,-0.2224 0.8385,-1.5688 0.2391,-2.0607 -0.185,-0.1518 -0.5123,-0.2373 -0.7815,-0.0981 -0.3431,0.1775 -0.4065,0.7198 -0.6725,0.8339 -0.1232,0.0528 -0.3073,-0.0225 -0.3966,-0.0818 0.0465,-0.0616 0.112,-0.0416 0.2247,-0.2119 0.217,-0.3277 0.2325,-0.7028 -0.063,-0.9468 -0.3581,-0.2958 -1.0651,-0.0153 -1.3046,0.2153z"/>
  </g>
 </g>
</svg>
